<svg width="54" height="27" viewBox="0 0 54 27" fill="none" xmlns="http://www.w3.org/2000/svg">
<path d="M11.2163 1.1001V26H5.86719V7.18408L0.0908203 8.94434V4.80859L10.6865 1.1001H11.2163Z" fill="#F54F29"/>
<path d="M32.5479 11.3369V15.7632C32.5479 17.5861 32.3428 19.1641 31.9326 20.4971C31.5339 21.8301 30.9528 22.9295 30.1895 23.7954C29.4375 24.6613 28.5374 25.305 27.4893 25.7266C26.4525 26.1367 25.3018 26.3418 24.0371 26.3418C23.0231 26.3418 22.0775 26.2108 21.2002 25.9487C20.3229 25.6867 19.5311 25.2822 18.8247 24.7354C18.1297 24.1771 17.5316 23.4821 17.0303 22.6504C16.529 21.8187 16.1416 20.8275 15.8682 19.6768C15.6061 18.526 15.4751 17.2215 15.4751 15.7632V11.3369C15.4751 9.49121 15.6745 7.90755 16.0732 6.58594C16.4834 5.26432 17.0701 4.17057 17.8335 3.30469C18.5968 2.4388 19.4969 1.80078 20.5337 1.39062C21.5819 0.980469 22.7383 0.775391 24.0029 0.775391C25.0169 0.775391 25.9569 0.906413 26.8228 1.16846C27.7 1.4305 28.4919 1.83496 29.1982 2.38184C29.9046 2.92871 30.5028 3.618 30.9927 4.44971C31.494 5.28141 31.8757 6.27262 32.1377 7.42334C32.4111 8.56266 32.5479 9.86719 32.5479 11.3369ZM27.2158 16.4297V10.6362C27.2158 9.78174 27.1646 9.04118 27.062 8.41455C26.9709 7.77653 26.8341 7.23535 26.6519 6.79102C26.481 6.34668 26.2645 5.98779 26.0024 5.71436C25.7404 5.44092 25.4385 5.24154 25.0967 5.11621C24.7663 4.97949 24.4017 4.91113 24.0029 4.91113C23.5016 4.91113 23.0516 5.01367 22.6528 5.21875C22.2541 5.42383 21.918 5.74854 21.6445 6.19287C21.3711 6.62581 21.1603 7.21257 21.0122 7.95312C20.8755 8.68229 20.8071 9.57666 20.8071 10.6362V16.4297C20.8071 17.2842 20.8527 18.0304 20.9438 18.6685C21.0464 19.3065 21.1831 19.8534 21.354 20.3091C21.5363 20.7534 21.7585 21.118 22.0205 21.4028C22.2826 21.6763 22.5845 21.8757 22.9263 22.001C23.2681 22.1263 23.6383 22.189 24.0371 22.189C24.5384 22.189 24.9827 22.0921 25.3701 21.8984C25.7575 21.6934 26.0879 21.3687 26.3613 20.9243C26.6462 20.4686 26.8569 19.8704 26.9937 19.1299C27.1418 18.3893 27.2158 17.4893 27.2158 16.4297Z" fill="#F54F29"/>
<path d="M42.0225 7.50879L44.8594 12.8579L47.7817 7.50879H53.3872L48.3457 16.5322L53.6265 26H47.9868L44.8765 20.292L41.7832 26H36.1265L41.4072 16.5322L36.3828 7.50879H42.0225Z" fill="#F54F29"/>
</svg>
