<svg width="48" height="37" viewBox="0 0 48 37" fill="none" xmlns="http://www.w3.org/2000/svg">
<path fill-rule="evenodd" clip-rule="evenodd" d="M33.5043 2.29225e-06C35.2045 0.00181427 36.7177 1.0782 37.2772 2.6837L46.7772 29.9446C47.5042 32.0307 46.4024 34.3111 44.3163 35.0381C42.2302 35.7651 39.9498 34.6633 39.2228 32.5772L33.4871 16.1182L27.2744 33.8243C26.822 35.1138 25.7426 36.0831 24.412 36.3946C23.0815 36.7062 21.684 36.317 20.7061 35.3625L13.2746 28.109L6.72141 34.1924C5.10236 35.6954 2.57145 35.6013 1.06846 33.9823C-0.434522 32.3632 -0.340431 29.8323 1.27862 28.3293L10.6224 19.6554C12.1853 18.2045 14.6116 18.2349 16.1377 19.7245L21.8033 25.2543L29.7256 2.67565C30.2885 1.07135 31.8041 -0.00181017 33.5043 2.29225e-06Z" fill="#F54F29"/>
</svg>
