<svg width="19" height="15" viewBox="0 0 19 15" fill="none" xmlns="http://www.w3.org/2000/svg">
<path d="M15.572 2.04599C15.5671 2.03672 15.5591 2.02945 15.5493 2.02549C14.4175 1.51304 13.2232 1.14763 11.9961 0.938396C11.985 0.936351 11.9735 0.937827 11.9632 0.942613C11.953 0.947399 11.9445 0.955253 11.939 0.965056C11.7764 1.25635 11.6288 1.55556 11.4967 1.86154C10.174 1.6634 8.8286 1.6634 7.50592 1.86154C7.37297 1.55478 7.22297 1.2555 7.0566 0.965056C7.0509 0.955466 7.0424 0.947793 7.03221 0.943038C7.02202 0.938283 7.01062 0.936665 6.99948 0.938396C5.77231 1.14719 4.57788 1.51263 3.44625 2.02552C3.43656 2.02957 3.42838 2.03649 3.42285 2.04532C1.1598 5.38042 0.539868 8.63351 0.843987 11.8463C0.844843 11.8542 0.847294 11.8618 0.851196 11.8687C0.855097 11.8757 0.860369 11.8817 0.866698 11.8866C2.18445 12.8495 3.65837 13.5844 5.22557 14.0601C5.2366 14.0634 5.24839 14.0632 5.25934 14.0597C5.27029 14.0562 5.27987 14.0494 5.28681 14.0403C5.62341 13.5883 5.92166 13.1097 6.17853 12.6094C6.18206 12.6025 6.18408 12.595 6.18445 12.5873C6.18482 12.5796 6.18353 12.5719 6.18067 12.5648C6.17781 12.5576 6.17345 12.5511 6.16787 12.5457C6.16228 12.5404 6.15561 12.5362 6.14828 12.5336C5.67796 12.356 5.22263 12.1419 4.78658 11.8933C4.77866 11.8888 4.772 11.8823 4.76721 11.8746C4.76241 11.8668 4.75962 11.8581 4.75907 11.849C4.75853 11.8399 4.76025 11.8309 4.76409 11.8227C4.76793 11.8144 4.77377 11.8073 4.78108 11.8018C4.87258 11.7341 4.96414 11.6637 5.05151 11.5927C5.05927 11.5864 5.06866 11.5823 5.07863 11.581C5.08859 11.5797 5.09874 11.5811 5.10791 11.5852C7.96471 12.8718 11.0576 12.8718 13.8806 11.5852C13.8898 11.5809 13.9 11.5792 13.9101 11.5804C13.9202 11.5816 13.9298 11.5856 13.9377 11.592C14.0251 11.6631 14.1166 11.7341 14.2088 11.8018C14.2162 11.8072 14.222 11.8143 14.2259 11.8225C14.2298 11.8307 14.2316 11.8398 14.2312 11.8488C14.2307 11.8579 14.228 11.8667 14.2232 11.8744C14.2185 11.8822 14.2119 11.8887 14.204 11.8933C13.7689 12.144 13.3132 12.3579 12.8416 12.5329C12.8343 12.5356 12.8277 12.5399 12.8221 12.5454C12.8166 12.5508 12.8122 12.5574 12.8094 12.5646C12.8066 12.5718 12.8054 12.5795 12.8058 12.5873C12.8063 12.595 12.8084 12.6025 12.8119 12.6094C13.0731 13.107 13.3709 13.585 13.703 14.0395C13.7097 14.0488 13.7193 14.0558 13.7303 14.0595C13.7412 14.0632 13.7531 14.0634 13.7642 14.06C15.3342 13.5859 16.8107 12.8509 18.1301 11.8866C18.1366 11.882 18.1419 11.8761 18.1458 11.8692C18.1497 11.8624 18.1521 11.8548 18.1528 11.847C18.5169 8.13265 17.5433 4.90622 15.572 2.04599ZM6.60517 9.89006C5.74507 9.89006 5.03637 9.11114 5.03637 8.15454C5.03637 7.19794 5.73132 6.41896 6.60517 6.41896C7.48585 6.41896 8.1877 7.2047 8.17395 8.15448C8.17395 9.11114 7.47897 9.89006 6.60517 9.89006ZM12.4055 9.89006C11.5454 9.89006 10.8367 9.11114 10.8367 8.15454C10.8367 7.19794 11.5317 6.41896 12.4055 6.41896C13.2863 6.41896 13.9881 7.2047 13.9743 8.15448C13.9743 9.11114 13.2863 9.89006 12.4055 9.89006Z" fill="white"/>
</svg>
